<svg aria-hidden="true" style="position: absolute; width: 0; height: 0; overflow: hidden;" version="1.1" xmlns="http://www.w3.org/2000/svg" xmlns:xlink="http://www.w3.org/1999/xlink">
<defs>
<symbol id="icon-directions_run" viewBox="0 0 24 24">
<title>directions_run</title>
<path d="M9.891 19.359l-6.984-1.359 0.375-2.016 4.922 0.984 1.594-8.109-1.828 0.703v3.422h-1.969v-4.688l5.203-2.203c0.281 0 0.516-0.094 0.797-0.094 0.703 0 1.266 0.375 1.688 0.984l0.984 1.594c0.797 1.406 2.391 2.391 4.313 2.391v2.016c-2.203 0-4.172-0.984-5.484-2.484l-0.609 3 2.109 1.969v7.5h-2.016v-6l-2.109-1.969zM13.5 5.484c-1.078 0-2.016-0.938-2.016-2.016s0.938-1.969 2.016-1.969 1.969 0.891 1.969 1.969-0.891 2.016-1.969 2.016z"></path>
</symbol>
<symbol id="icon-download" viewBox="0 0 20 20">
<title>download</title>
<path d="M15 7h-3v-6h-4v6h-3l5 5 5-5zM19.338 13.532c-0.21-0.224-1.611-1.723-2.011-2.114-0.265-0.259-0.644-0.418-1.042-0.418h-1.757l3.064 2.994h-3.544c-0.102 0-0.194 0.052-0.24 0.133l-0.816 1.873h-5.984l-0.816-1.873c-0.046-0.081-0.139-0.133-0.24-0.133h-3.544l3.063-2.994h-1.756c-0.397 0-0.776 0.159-1.042 0.418-0.4 0.392-1.801 1.891-2.011 2.114-0.489 0.521-0.758 0.936-0.63 1.449l0.561 3.074c0.128 0.514 0.691 0.936 1.252 0.936h16.312c0.561 0 1.124-0.422 1.252-0.936l0.561-3.074c0.126-0.513-0.142-0.928-0.632-1.449z"></path>
</symbol>
<symbol id="icon-open-book" viewBox="0 0 20 20">
<title>open-book</title>
<path d="M10.595 5.196l0.446 1.371c0.369-0.316 0.835-0.599 1.441-0.795 0.59-0.192 1.111-0.3 1.582-0.362l-0.43-1.323c-0.476 0.069-1.001 0.18-1.58 0.368s-1.055 0.45-1.459 0.741zM11.522 8.051l0.446 1.371c0.369-0.316 0.835-0.599 1.441-0.795 0.59-0.192 1.111-0.3 1.582-0.362l-0.43-1.323c-0.476 0.069-1.001 0.18-1.58 0.368-0.578 0.187-1.054 0.449-1.459 0.741zM12.45 10.905l0.446 1.371c0.369-0.316 0.835-0.599 1.441-0.795 0.59-0.192 1.111-0.3 1.582-0.362l-0.43-1.323c-0.476 0.069-1.001 0.18-1.58 0.368-0.579 0.187-1.055 0.45-1.459 0.741zM5.388 13.077l0.43 1.323c0.417-0.226 0.902-0.445 1.492-0.636 0.606-0.197 1.149-0.242 1.633-0.203l-0.446-1.371c-0.499 0.002-1.038 0.070-1.615 0.257-0.579 0.188-1.069 0.406-1.494 0.63zM3.533 7.368l0.43 1.323c0.417-0.226 0.902-0.444 1.492-0.636 0.606-0.197 1.149-0.242 1.633-0.203l-0.445-1.372c-0.499 0.003-1.038 0.070-1.616 0.258-0.579 0.188-1.069 0.406-1.494 0.63zM4.46 10.223l0.43 1.323c0.417-0.226 0.902-0.445 1.492-0.636 0.606-0.197 1.149-0.242 1.633-0.203l-0.445-1.372c-0.499 0.002-1.038 0.070-1.615 0.257-0.579 0.188-1.070 0.407-1.495 0.631zM11.064 1.41c-1.723 0.56-2.623 1.752-3.053 2.559-0.822-0.4-2.25-0.835-3.973-0.275-2.523 0.82-3.969 2.627-3.969 2.627l4.095 12.587c0.126 0.387 0.646 0.477 0.878 0.143 0.499-0.719 1.46-1.658 3.257-2.242 1.718-0.558 2.969 0.054 3.655 0.578 0.272 0.208 0.662 0.060 0.762-0.268 0.252-0.827 0.907-2.040 2.61-2.593 1.799-0.585 3.129-0.389 3.956-0.1 0.385 0.134 0.75-0.242 0.625-0.629l-4.088-12.594c0 0-2.232-0.612-4.755 0.207zM10.951 15.256c-0.819-0.244-1.901-0.358-3.141 0.044-1.251 0.406-2.127 0.949-2.699 1.404l-3.245-9.982c0.358-0.358 1.187-1.042 2.662-1.521 1.389-0.451 2.528-0.065 3.279 0.378l3.144 9.677zM17.845 12.567c-0.731-0.032-1.759 0.044-3.010 0.451-1.24 0.403-2.048 1.132-2.567 1.81l-3.144-9.677c0.346-0.8 1.040-1.782 2.43-2.233 1.474-0.479 2.547-0.413 3.047-0.334l3.244 9.983z"></path>
</symbol>
<symbol id="icon-aircraft" viewBox="0 0 20 20">
<title>aircraft</title>
<path d="M12.496 17.414c-0.394-1.096-1.805-4.775-2.39-6.297-1.103 0.737-2.334 1.435-3.512 1.928-0.366 1.28-1.094 3.709-1.446 4.033-0.604 0.557-0.832 0.485-0.925-0.279s-0.485-3.236-0.485-3.236-2.162-1.219-2.84-1.568-0.667-0.591 0.057-0.974c0.422-0.223 2.927-0.085 4.242 0.005 0.861-0.951 1.931-1.882 2.993-2.679-1.215-1.076-4.15-3.675-5.034-4.424-0.776-0.658 0.079-0.797 0.079-0.797 0.39-0.070 1.222-0.132 1.628-0.009 2.524 0.763 6.442 2.068 7.363 2.376 0.353-0.249 0.737-0.52 1.162-0.821 4.702-3.33 5.887-2.593 6.111-2.27s0.503 1.701-4.199 5.032c-0.425 0.301-0.808 0.573-1.16 0.823-0.029 0.98-0.157 5.151-0.311 7.811-0.025 0.428-0.367 1.198-0.565 1.544-0.001 0-0.423 0.765-0.768-0.198z"></path>
</symbol>
<symbol id="icon-briefcase" viewBox="0 0 20 20">
<title>briefcase</title>
<path d="M9 10h2v2h9c0 0-0.149-4.459-0.2-5.854-0.050-1.326-0.525-2.146-2-2.146h-3.208c-0.497-0.938-1.032-1.945-1.197-2.256-0.331-0.623-0.444-0.744-1.179-0.744h-4.433c-0.735 0-0.847 0.121-1.179 0.744-0.165 0.311-0.7 1.318-1.196 2.256h-3.209c-1.476 0-1.945 0.82-2 2.146s-0.199 5.854-0.199 5.854h9v-2zM7.649 2.916c0.23-0.432 0.308-0.516 0.817-0.516h3.067c0.509 0 0.588 0.084 0.816 0.516 0.086 0.16 0.318 0.6 0.575 1.084h-5.85c0.257-0.484 0.489-0.924 0.575-1.084zM11 15h-2v-2h-8.5c0 0 0.124 1.797 0.199 3.322 0.031 0.633 0.218 1.678 1.8 1.678h15.001c1.582 0 1.765-1.047 1.8-1.678 0.087-1.568 0.2-3.322 0.2-3.322h-8.5v2z"></path>
</symbol>
<symbol id="icon-code" viewBox="0 0 20 20">
<title>code</title>
<path d="M5.719 14.75c-0.236 0-0.474-0.083-0.664-0.252l-5.060-4.498 5.341-4.748c0.412-0.365 1.044-0.33 1.411 0.083s0.33 1.045-0.083 1.412l-3.659 3.253 3.378 3.002c0.413 0.367 0.45 0.999 0.083 1.412-0.197 0.223-0.472 0.336-0.747 0.336zM14.664 14.748l5.341-4.748-5.060-4.498c-0.413-0.367-1.045-0.33-1.411 0.083s-0.33 1.045 0.083 1.412l3.378 3.003-3.659 3.252c-0.413 0.367-0.45 0.999-0.083 1.412 0.197 0.223 0.472 0.336 0.747 0.336 0.236 0 0.474-0.083 0.664-0.252zM9.986 16.165l2-12c0.091-0.545-0.277-1.060-0.822-1.151-0.547-0.092-1.061 0.277-1.15 0.822l-2 12c-0.091 0.545 0.277 1.060 0.822 1.151 0.056 0.009 0.11 0.013 0.165 0.013 0.48 0 0.904-0.347 0.985-0.835z"></path>
</symbol>
<symbol id="icon-email" viewBox="0 0 20 20">
<title>email</title>
<path d="M14.608 12.172c0 0.84 0.239 1.175 0.864 1.175 1.393 0 2.28-1.775 2.28-4.727 0-4.512-3.288-6.672-7.393-6.672-4.223 0-8.064 2.832-8.064 8.184 0 5.112 3.36 7.896 8.52 7.896 1.752 0 2.928-0.192 4.727-0.792l0.386 1.607c-1.776 0.577-3.674 0.744-5.137 0.744-6.768 0-10.393-3.72-10.393-9.456 0-5.784 4.201-9.72 9.985-9.72 6.024 0 9.215 3.6 9.215 8.016 0 3.744-1.175 6.6-4.871 6.6-1.681 0-2.784-0.672-2.928-2.161-0.432 1.656-1.584 2.161-3.145 2.161-2.088 0-3.84-1.609-3.84-4.848 0-3.264 1.537-5.28 4.297-5.28 1.464 0 2.376 0.576 2.782 1.488l0.697-1.272h2.016v7.057h0.002zM11.657 9.004c0-1.319-0.985-1.872-1.801-1.872-0.888 0-1.871 0.719-1.871 2.832 0 1.68 0.744 2.616 1.871 2.616 0.792 0 1.801-0.504 1.801-1.896v-1.68z"></path>
</symbol>
<symbol id="icon-graduation-cap" viewBox="0 0 20 20">
<title>graduation-cap</title>
<path d="M3.302 12.238c0.464 1.879 1.054 2.701 3.022 3.562 1.969 0.86 2.904 1.8 3.676 1.8s1.648-0.822 3.616-1.684c1.969-0.861 1.443-1.123 1.907-3.002l-5.523 2.686-6.698-3.362zM19.511 7.336l-8.325-4.662c-0.652-0.365-1.72-0.365-2.372 0l-8.326 4.662c-0.652 0.365-0.652 0.963 0 1.328l8.325 4.662c0.652 0.365 1.72 0.365 2.372 0l5.382-3.014-5.836-1.367c-0.225 0.055-0.472 0.086-0.731 0.086-1.052 0-1.904-0.506-1.904-1.131 0-0.627 0.853-1.133 1.904-1.133 0.816 0 1.51 0.307 1.78 0.734l6.182 2.029 1.549-0.867c0.651-0.364 0.651-0.962 0-1.327zM16.967 16.17c-0.065 0.385 1.283 1.018 1.411-0.107 0.579-5.072-0.416-6.531-0.416-6.531l-1.395 0.781c0-0.001 1.183 1.125 0.4 5.857z"></path>
</symbol>
<symbol id="icon-heart" viewBox="0 0 20 20">
<title>heart</title>
<path d="M17.19 4.155c-1.672-1.534-4.383-1.534-6.055 0l-1.135 1.042-1.136-1.042c-1.672-1.534-4.382-1.534-6.054 0-1.881 1.727-1.881 4.52 0 6.246l7.19 6.599 7.19-6.599c1.88-1.726 1.88-4.52 0-6.246z"></path>
</symbol>
<symbol id="icon-location-pin" viewBox="0 0 20 20">
<title>location-pin</title>
<path d="M10 2.009c-2.762 0-5 2.229-5 4.99 0 4.774 5 11 5 11s5-6.227 5-11c0-2.76-2.238-4.99-5-4.99zM10 9.76c-1.492 0-2.7-1.209-2.7-2.7s1.208-2.7 2.7-2.7c1.49 0 2.699 1.209 2.699 2.7s-1.209 2.7-2.699 2.7z"></path>
</symbol>
<symbol id="icon-music" viewBox="0 0 20 20">
<title>music</title>
<path d="M16 1h-12c-0.553 0-1 0.447-1 1v16c0 0.552 0.447 1 1 1h12c0.553 0 1-0.448 1-1v-16c0-0.552-0.447-1-1-1zM12.795 11.519c-0.185 0.382-0.373 0.402-0.291 0 0.211-1.039 0.068-3.271-1.504-3.519v4.75c0 0.973-0.448 1.82-1.639 2.203-1.156 0.369-2.449-0.016-2.752-0.846s0.377-1.84 1.518-2.256c0.637-0.232 1.375-0.292 1.873-0.101v-6.75h1c0 2.355 4.065 1.839 1.795 6.519z"></path>
</symbol>
<symbol id="icon-old-phone" viewBox="0 0 20 20">
<title>old-phone</title>
<path d="M17.256 12.253c-0.096-0.667-0.611-1.187-1.274-1.342-2.577-0.604-3.223-2.088-3.332-3.734-0.457-0.085-1.27-0.177-2.65-0.177s-2.193 0.092-2.65 0.177c-0.109 1.646-0.755 3.13-3.332 3.734-0.663 0.156-1.178 0.675-1.274 1.342l-0.497 3.442c-0.175 1.212 0.715 2.305 1.953 2.305h11.6c1.237 0 2.128-1.093 1.953-2.305l-0.497-3.442zM10 15.492c-1.395 0-2.526-1.12-2.526-2.5s1.131-2.5 2.526-2.5 2.526 1.12 2.526 2.5-1.132 2.5-2.526 2.5zM19.95 6c-0.024-1.5-3.842-3.999-9.95-4-6.109 0.001-9.927 2.5-9.95 4s0.021 3.452 2.535 3.127c2.941-0.381 2.76-1.408 2.76-2.876 0-1.024 2.392-1.271 4.655-1.271s4.654 0.247 4.655 1.271c0 1.468-0.181 2.495 2.76 2.876 2.513 0.325 2.558-1.627 2.535-3.127z"></path>
</symbol>
<symbol id="icon-video" viewBox="0 0 20 20">
<title>video</title>
<path d="M20 5v-1.201c0-0.442-0.357-0.799-0.799-0.799h-18.4c-0.443 0-0.801 0.357-0.801 0.799v1.201h2v2h-2v2h2v2h-2v2h2v2h-2v1.199c0 0.442 0.358 0.801 0.801 0.801h18.4c0.442 0 0.799-0.359 0.799-0.801v-1.199h-2v-2h2v-2h-2v-2h2v-2h-2v-2h2zM8 13v-6l5 3-5 3z"></path>
</symbol>
<symbol id="icon-github" viewBox="0 0 20 20">
<title>github</title>
<path d="M13.18 11.309c-0.718 0-1.3 0.807-1.3 1.799 0 0.994 0.582 1.801 1.3 1.801s1.3-0.807 1.3-1.801c-0.001-0.992-0.582-1.799-1.3-1.799zM17.706 6.626c0.149-0.365 0.155-2.439-0.635-4.426 0 0-1.811 0.199-4.551 2.080-0.575-0.16-1.548-0.238-2.519-0.238-0.973 0-1.945 0.078-2.52 0.238-2.741-1.881-4.552-2.080-4.552-2.080-0.789 1.987-0.781 4.061-0.634 4.426-0.928 1.008-1.495 2.219-1.495 3.871 0 7.186 5.963 7.301 7.467 7.301 0.342 0 1.018 0.002 1.734 0.002s1.392-0.002 1.732-0.002c1.506 0 7.467-0.115 7.467-7.301 0-1.652-0.566-2.863-1.494-3.871zM10.028 16.915h-0.056c-3.771 0-6.709-0.449-6.709-4.115 0-0.879 0.31-1.693 1.047-2.369 1.227-1.127 3.305-0.531 5.662-0.531 0.010 0 0.020 0 0.029 0s0.018 0 0.027 0c2.357 0 4.436-0.596 5.664 0.531 0.735 0.676 1.045 1.49 1.045 2.369 0 3.666-2.937 4.115-6.709 4.115zM6.821 11.309c-0.718 0-1.3 0.807-1.3 1.799 0 0.994 0.582 1.801 1.3 1.801s1.301-0.807 1.301-1.801c0-0.992-0.582-1.799-1.301-1.799z"></path>
</symbol>
<symbol id="icon-linkedin" viewBox="0 0 20 20">
<title>linkedin</title>
<path d="M5 3c0 1.062-0.71 1.976-2.001 1.976-1.215 0-1.999-0.862-1.999-1.924 0-1.090 0.76-2.052 2-2.052s1.976 0.91 2 2zM1 19v-13h4v13h-4z"></path>
<path d="M7 10.444c0-1.545-0.051-2.836-0.102-3.951h3.594l0.178 1.723h0.076c0.506-0.811 1.746-2 3.822-2 2.532 0 4.432 1.695 4.432 5.342v7.442h-4v-6.861c0-1.594-0.607-2.81-2-2.81-1.062 0-1.594 0.86-1.873 1.569-0.102 0.254-0.127 0.608-0.127 0.963v7.139h-4v-8.556z"></path>
</symbol>
<symbol id="icon-codepen" viewBox="0 0 32 32">
<title>codepen</title>
<path d="M29.555 11.501l-14-9.333c-0.336-0.224-0.774-0.224-1.109 0l-14 9.333c-0.278 0.185-0.445 0.498-0.445 0.832v9.333c0 0.334 0.167 0.647 0.445 0.832l14 9.333c0.168 0.112 0.361 0.168 0.555 0.168s0.387-0.056 0.555-0.168l14-9.333c0.278-0.185 0.445-0.498 0.445-0.832v-9.333c0-0.334-0.167-0.647-0.445-0.832zM15 20.465l-5.197-3.465 5.197-3.465 5.197 3.465-5.197 3.465zM16 11.798v-6.93l11.197 7.465-5.197 3.465-6-4zM14 11.798l-6 4-5.197-3.465 11.197-7.465v6.93zM6.197 17l-4.197 2.798v-5.596l4.197 2.798zM8 18.202l6 4v6.93l-11.197-7.465 5.197-3.465zM16 22.202l6-4 5.197 3.465-11.197 7.465v-6.93zM23.803 17l4.197-2.798v5.596l-4.197-2.798z"></path>
</symbol>
</defs>
</svg>
